<?xml version="1.0" encoding="UTF-8" standalone="no"?>
<svg
   xmlns:dc="http://purl.org/dc/elements/1.1/"
   xmlns:cc="http://creativecommons.org/ns#"
   xmlns:rdf="http://www.w3.org/1999/02/22-rdf-syntax-ns#"
   xmlns:svg="http://www.w3.org/2000/svg"
   xmlns="http://www.w3.org/2000/svg"
   xmlns:sodipodi="http://sodipodi.sourceforge.net/DTD/sodipodi-0.dtd"
   xmlns:inkscape="http://www.inkscape.org/namespaces/inkscape"
   viewBox="0 0 99.009002 18.354"
   version="1.1"
   id="svg10"
   sodipodi:docname="right-arrow-long.svg"
   width="99.009003"
   height="18.354"
   inkscape:version="0.92.4 5da689c313, 2019-01-14">
  <metadata
     id="metadata14">
    <rdf:RDF>
      <cc:Work
         rdf:about="">
        <dc:format>image/svg+xml</dc:format>
        <dc:type
           rdf:resource="http://purl.org/dc/dcmitype/StillImage" />
        <dc:title></dc:title>
      </cc:Work>
    </rdf:RDF>
  </metadata>
  <sodipodi:namedview
     pagecolor="#ffffff"
     bordercolor="#666666"
     borderopacity="1"
     objecttolerance="10"
     gridtolerance="10"
     guidetolerance="10"
     inkscape:pageopacity="0"
     inkscape:pageshadow="2"
     inkscape:window-width="1920"
     inkscape:window-height="1016"
     id="namedview12"
     showgrid="false"
     inkscape:zoom="2.3836216"
     inkscape:cx="9.177"
     inkscape:cy="49.504501"
     inkscape:window-x="0"
     inkscape:window-y="30"
     inkscape:window-maximized="1"
     inkscape:current-layer="svg10" />
  <defs
     id="defs4">
    <style
       id="style2">
      .cls-1 {
        fill: #54c3c5;
      }
    </style>
  </defs>
  <g
     id="Group_21"
     data-name="Group 21"
     transform="translate(-1027.9999,-2692.0001)">
    <g
       id="back"
       transform="translate(1116.563,2692)">
      <path
         id="Path_2"
         data-name="Path 2"
         class="cls-1"
         d="m 121.605,9.176 -8.927,-8.288 a 0.492,0.492 0 0 1 0,-0.735 0.588,0.588 0 0 1 0.791,0 l 9.325,8.658 a 0.492,0.492 0 0 1 0,0.735 l -9.325,8.654 a 0.585,0.585 0 0 1 -0.394,0.154 0.567,0.567 0 0 1 -0.394,-0.154 0.492,0.492 0 0 1 0,-0.735 z"
         transform="translate(-112.513)"
         inkscape:connector-curvature="0"
         style="fill:#54c3c5" />
    </g>
    <rect
       id="Rectangle_45"
       data-name="Rectangle 45"
       class="cls-1"
       width="99.008003"
       height="1.419"
       rx="0.70899999"
       transform="translate(1028,2700.512)"
       x="0"
       y="0"
       style="fill:#54c3c5" />
  </g>
</svg>
