<svg xmlns="http://www.w3.org/2000/svg" viewBox="0 0 18.354 99.009">
  <defs>
    <style>
      .cls-1 {
        fill: #54c3c5;
      }
    </style>
  </defs>
  <g id="Group_21" data-name="Group 21" transform="translate(2710.354 -1028) rotate(90)">
    <g id="back" transform="translate(1116.563 2692)">
      <path id="Path_2" data-name="Path 2" class="cls-1" d="M121.605,9.176,112.678.888a.492.492,0,0,1,0-.735.588.588,0,0,1,.791,0l9.325,8.658a.492.492,0,0,1,0,.735L113.469,18.2a.585.585,0,0,1-.394.154.567.567,0,0,1-.394-.154.492.492,0,0,1,0-.735Z" transform="translate(-112.513 0)"/>
    </g>
    <rect id="Rectangle_45" data-name="Rectangle 45" class="cls-1" width="99.008" height="1.419" rx="0.709" transform="translate(1028 2700.512)"/>
  </g>
</svg>
