<svg xmlns="http://www.w3.org/2000/svg" viewBox="0 0 18.525 19.412">
  <defs>
    <style>
      .cls-1 {
        fill: #fff;
      }
    </style>
  </defs>
  <path id="Path_15" data-name="Path 15" class="cls-1" d="M18.415,7.3a.373.373,0,0,0-.531,0L7.615,17.57a4.022,4.022,0,0,1-5.688-5.688L12.192,1.616a2.757,2.757,0,0,1,3.978.155,2.757,2.757,0,0,1,.155,3.978L6.682,15.393a1.384,1.384,0,1,1-1.957-1.957L11.259,6.9a.375.375,0,0,0-.531-.531L4.194,12.905a2.137,2.137,0,0,0,3.022,3.022L16.86,6.284A3.494,3.494,0,0,0,16.7,1.241a3.494,3.494,0,0,0-5.044-.155L1.392,11.35A4.769,4.769,0,0,0,4.77,19.5,4.746,4.746,0,0,0,8.149,18.1L18.415,7.839A.378.378,0,0,0,18.415,7.3Z" transform="translate(0 -0.083)"/>
</svg>
